<svg width="291" height="65" viewBox="0 0 291 65" fill="none" xmlns="http://www.w3.org/2000/svg">
<path d="M79.4623 42.3562L75.3743 34.9362H74.2263V42.3562H69.4383V22.7002H77.4743C79.0237 22.7002 80.3397 22.9709 81.4223 23.5122C82.5237 24.0535 83.345 24.8002 83.8863 25.7522C84.4277 26.6855 84.6983 27.7309 84.6983 28.8882C84.6983 30.1949 84.325 31.3615 83.5783 32.3882C82.8503 33.4149 81.7677 34.1429 80.3303 34.5722L84.8663 42.3562H79.4623ZM74.2263 31.5482H77.1943C78.0717 31.5482 78.725 31.3335 79.1543 30.9042C79.6023 30.4749 79.8263 29.8682 79.8263 29.0842C79.8263 28.3375 79.6023 27.7495 79.1543 27.3202C78.725 26.8909 78.0717 26.6762 77.1943 26.6762H74.2263V31.5482ZM102.432 34.2922C102.432 34.7402 102.404 35.2069 102.348 35.6922H91.512C91.5866 36.6629 91.8946 37.4095 92.436 37.9322C92.996 38.4362 93.6773 38.6882 94.48 38.6882C95.6746 38.6882 96.5053 38.1842 96.972 37.1762H102.068C101.807 38.2029 101.331 39.1269 100.64 39.9482C99.968 40.7695 99.1186 41.4135 98.092 41.8802C97.0653 42.3469 95.9173 42.5802 94.648 42.5802C93.1173 42.5802 91.7546 42.2535 90.56 41.6002C89.3653 40.9469 88.432 40.0135 87.76 38.8002C87.088 37.5869 86.752 36.1682 86.752 34.5442C86.752 32.9202 87.0786 31.5015 87.732 30.2882C88.404 29.0749 89.3373 28.1415 90.532 27.4882C91.7266 26.8349 93.0986 26.5082 94.648 26.5082C96.16 26.5082 97.504 26.8255 98.68 27.4602C99.856 28.0949 100.771 29.0002 101.424 30.1762C102.096 31.3522 102.432 32.7242 102.432 34.2922ZM97.532 33.0322C97.532 32.2109 97.252 31.5575 96.692 31.0722C96.132 30.5869 95.432 30.3442 94.592 30.3442C93.7893 30.3442 93.108 30.5775 92.548 31.0442C92.0066 31.5109 91.6706 32.1735 91.54 33.0322H97.532ZM107.338 25.1082C106.498 25.1082 105.807 24.8655 105.266 24.3802C104.743 23.8762 104.482 23.2602 104.482 22.5322C104.482 21.7855 104.743 21.1695 105.266 20.6842C105.807 20.1802 106.498 19.9282 107.338 19.9282C108.159 19.9282 108.831 20.1802 109.354 20.6842C109.895 21.1695 110.166 21.7855 110.166 22.5322C110.166 23.2602 109.895 23.8762 109.354 24.3802C108.831 24.8655 108.159 25.1082 107.338 25.1082ZM109.746 44.3722C109.746 46.2949 109.261 47.6762 108.29 48.5162C107.319 49.3749 105.966 49.8042 104.23 49.8042H102.354V45.7442H103.502C104.025 45.7442 104.398 45.6415 104.622 45.4362C104.846 45.2309 104.958 44.8949 104.958 44.4282V26.7322H109.746V44.3722ZM128.616 26.7322V42.3562H123.828V40.2282C123.343 40.9189 122.68 41.4789 121.84 41.9082C121.019 42.3189 120.104 42.5242 119.096 42.5242C117.902 42.5242 116.847 42.2629 115.932 41.7402C115.018 41.1989 114.308 40.4242 113.804 39.4162C113.3 38.4082 113.048 37.2229 113.048 35.8602V26.7322H117.808V35.2162C117.808 36.2615 118.079 37.0735 118.62 37.6522C119.162 38.2309 119.89 38.5202 120.804 38.5202C121.738 38.5202 122.475 38.2309 123.016 37.6522C123.558 37.0735 123.828 36.2615 123.828 35.2162V26.7322H128.616ZM139.084 37.8762L142.472 26.7322H147.568L142.024 42.3562H136.116L130.572 26.7322H135.696L139.084 37.8762ZM164.311 34.2922C164.311 34.7402 164.283 35.2069 164.227 35.6922H153.391C153.466 36.6629 153.774 37.4095 154.315 37.9322C154.875 38.4362 155.556 38.6882 156.359 38.6882C157.554 38.6882 158.384 38.1842 158.851 37.1762H163.947C163.686 38.2029 163.21 39.1269 162.519 39.9482C161.847 40.7695 160.998 41.4135 159.971 41.8802C158.944 42.3469 157.796 42.5802 156.527 42.5802C154.996 42.5802 153.634 42.2535 152.439 41.6002C151.244 40.9469 150.311 40.0135 149.639 38.8002C148.967 37.5869 148.631 36.1682 148.631 34.5442C148.631 32.9202 148.958 31.5015 149.611 30.2882C150.283 29.0749 151.216 28.1415 152.411 27.4882C153.606 26.8349 154.978 26.5082 156.527 26.5082C158.039 26.5082 159.383 26.8255 160.559 27.4602C161.735 28.0949 162.65 29.0002 163.303 30.1762C163.975 31.3522 164.311 32.7242 164.311 34.2922ZM159.411 33.0322C159.411 32.2109 159.131 31.5575 158.571 31.0722C158.011 30.5869 157.311 30.3442 156.471 30.3442C155.668 30.3442 154.987 30.5775 154.427 31.0442C153.886 31.5109 153.55 32.1735 153.419 33.0322H159.411ZM176.357 26.5642C178.186 26.5642 179.642 27.1615 180.725 28.3562C181.826 29.5322 182.377 31.1562 182.377 33.2282V42.3562H177.617V33.8722C177.617 32.8269 177.346 32.0149 176.805 31.4362C176.263 30.8575 175.535 30.5682 174.621 30.5682C173.706 30.5682 172.978 30.8575 172.437 31.4362C171.895 32.0149 171.625 32.8269 171.625 33.8722V42.3562H166.837V26.7322H171.625V28.8042C172.11 28.1135 172.763 27.5722 173.585 27.1802C174.406 26.7695 175.33 26.5642 176.357 26.5642ZM184.752 34.5162C184.752 32.9109 185.051 31.5015 185.648 30.2882C186.264 29.0749 187.095 28.1415 188.14 27.4882C189.185 26.8349 190.352 26.5082 191.64 26.5082C192.741 26.5082 193.703 26.7322 194.524 27.1802C195.364 27.6282 196.008 28.2162 196.456 28.9442V26.7322H201.244V42.3562H196.456V40.1442C195.989 40.8722 195.336 41.4602 194.496 41.9082C193.675 42.3562 192.713 42.5802 191.612 42.5802C190.343 42.5802 189.185 42.2535 188.14 41.6002C187.095 40.9282 186.264 39.9855 185.648 38.7722C185.051 37.5402 184.752 36.1215 184.752 34.5162ZM196.456 34.5442C196.456 33.3495 196.12 32.4069 195.448 31.7162C194.795 31.0255 193.992 30.6802 193.04 30.6802C192.088 30.6802 191.276 31.0255 190.604 31.7162C189.951 32.3882 189.624 33.3215 189.624 34.5162C189.624 35.7109 189.951 36.6629 190.604 37.3722C191.276 38.0629 192.088 38.4082 193.04 38.4082C193.992 38.4082 194.795 38.0629 195.448 37.3722C196.12 36.6815 196.456 35.7389 196.456 34.5442ZM213.416 38.2962V42.3562H210.98C209.244 42.3562 207.891 41.9362 206.92 41.0962C205.949 40.2375 205.464 38.8469 205.464 36.9242V30.7082H203.56V26.7322H205.464V22.9242H210.252V26.7322H213.388V30.7082H210.252V36.9802C210.252 37.4469 210.364 37.7829 210.588 37.9882C210.812 38.1935 211.185 38.2962 211.708 38.2962H213.416ZM230.811 34.2922C230.811 34.7402 230.783 35.2069 230.727 35.6922H219.891C219.966 36.6629 220.274 37.4095 220.815 37.9322C221.375 38.4362 222.056 38.6882 222.859 38.6882C224.054 38.6882 224.884 38.1842 225.351 37.1762H230.447C230.186 38.2029 229.71 39.1269 229.019 39.9482C228.347 40.7695 227.498 41.4135 226.471 41.8802C225.444 42.3469 224.296 42.5802 223.027 42.5802C221.496 42.5802 220.134 42.2535 218.939 41.6002C217.744 40.9469 216.811 40.0135 216.139 38.8002C215.467 37.5869 215.131 36.1682 215.131 34.5442C215.131 32.9202 215.458 31.5015 216.111 30.2882C216.783 29.0749 217.716 28.1415 218.911 27.4882C220.106 26.8349 221.478 26.5082 223.027 26.5082C224.539 26.5082 225.883 26.8255 227.059 27.4602C228.235 28.0949 229.15 29.0002 229.803 30.1762C230.475 31.3522 230.811 32.7242 230.811 34.2922ZM225.911 33.0322C225.911 32.2109 225.631 31.5575 225.071 31.0722C224.511 30.5869 223.811 30.3442 222.971 30.3442C222.168 30.3442 221.487 30.5775 220.927 31.0442C220.386 31.5109 220.05 32.1735 219.919 33.0322H225.911ZM251.506 38.8842H244.17L242.994 42.3562H237.982L245.094 22.7002H250.638L257.75 42.3562H252.682L251.506 38.8842ZM250.274 35.1882L247.838 27.9922L245.43 35.1882H250.274ZM264.703 22.7002V42.3562H259.915V22.7002H264.703Z" fill="#EEC438"/>
<path d="M28.9879 12.6665C23.5041 12.6297 22.7863 17.8095 22.7863 17.8095C24.8153 17.7031 24.8631 14.4136 27.4184 14.6192C25.3321 16.9319 26.3561 20.3566 26.3561 20.3566L27.5045 20.7806L29.1028 20.3326C29.1028 20.3326 31.3231 17.8759 30.701 15.2144C33.3903 17.3079 30.8446 19.1887 34.0985 21.7246C34.0985 21.7246 35.7254 18.9167 34.577 16.3776C37.4194 18.5647 36.3475 22.2686 40.4244 23.0446C37.3332 20.1967 40.2809 14.028 30.1555 12.7465C29.744 12.6945 29.3612 12.6689 28.9879 12.6665ZM19.1783 17.7567C6.40102 17.7239 9.73627 24.3725 9.15918 30.0044C12.3432 27.9564 9.68172 22.8846 12.6466 20.9806C11.5029 22.6606 13.0017 26.7645 13.0017 26.7645C16.2498 24.5565 11.9662 19.2287 20.4608 17.7807C20.011 17.7655 19.5899 17.7575 19.1783 17.7567ZM23.2744 21.7166C19.5803 21.7166 16.4699 23.4766 16.5656 26.3485C10.7565 28.2524 13.2735 37.6922 13.2735 43.764C17.1781 40.5081 13.4084 32.9883 16.4891 30.4124L17.6854 38.9002C20.767 36.0442 17.5131 30.1164 20.4703 27.3805L21.2264 33.3803C23.552 31.0604 21.0924 24.2685 26.4422 22.1406C25.3799 21.8526 24.2985 21.7086 23.2744 21.7166ZM30.4043 22.0606C26.7963 21.9646 23.6668 25.6525 26.6815 29.8204C26.6815 29.8204 26.7485 26.7085 28.5285 25.5005C30.1938 27.2125 27.4279 31.6203 30.4713 34.7323L31.9069 27.1405C34.9406 29.9724 31.2465 35.4122 33.9645 37.9402L35.8977 31.7003C38.5678 35.3642 35.3139 41.1481 38.9219 44.18C38.7688 41.6521 44.1664 30.9244 36.4528 27.7645C35.2373 23.7326 32.7203 22.1166 30.4043 22.0606ZM40.702 24.3725C38.5487 24.3645 36.893 24.6925 36.893 24.6925C43.8028 24.9725 43.5156 29.9244 43.5156 29.9244C49.4875 31.5803 47.6692 38.3642 48.875 40.0681C50.9709 33.5163 46.8557 28.2924 46.8557 28.2924C46.8557 28.2924 49.2483 29.1884 50.2723 32.6443C50.7029 25.6205 44.8076 24.3885 40.702 24.3725ZM24.6334 31.1644C24.777 32.4043 23.3988 34.1323 23.3988 34.1323C23.3988 34.1323 23.8582 35.7482 27.9735 35.0283C27.9735 35.0283 26.9877 34.4203 26.7102 32.7723C25.3895 32.3083 24.6334 31.1644 24.6334 31.1644ZM21.4944 36.1482C21.4944 36.1482 21.1785 38.6122 21.8963 41.2441C22.6715 44.084 23.6668 41.0361 23.552 38.6202C26.5666 39.4681 23.1404 42.0761 26.825 44.396L27.1983 39.8521C30.3852 40.6441 26.9781 45.004 29.6291 45.876C31.591 44.124 31.9356 41.0041 29.9354 39.2441C27.2748 36.9002 24.2219 38.5482 21.4944 36.1482ZM32.3758 39.4841C33.8113 42.2041 34.175 47.2439 28.0979 49.4919H40.9221C40.9221 49.4919 43.1233 45.532 41.7356 43.1L39.9746 46.42C34.9311 45.348 35.4574 42.6601 32.3758 39.4841Z" fill="#EEC438"/>
</svg>
