<svg width="291" height="73" viewBox="0 0 291 73" fill="none" xmlns="http://www.w3.org/2000/svg">
<path d="M74.2047 48L69.8247 40.05H68.5947V48H63.4647V26.94H72.0747C73.7347 26.94 75.1447 27.23 76.3047 27.81C77.4847 28.39 78.3647 29.19 78.9447 30.21C79.5247 31.21 79.8147 32.33 79.8147 33.57C79.8147 34.97 79.4147 36.22 78.6147 37.32C77.8347 38.42 76.6747 39.2 75.1347 39.66L79.9947 48H74.2047ZM68.5947 36.42H71.7747C72.7147 36.42 73.4147 36.19 73.8747 35.73C74.3547 35.27 74.5947 34.62 74.5947 33.78C74.5947 32.98 74.3547 32.35 73.8747 31.89C73.4147 31.43 72.7147 31.2 71.7747 31.2H68.5947V36.42ZM98.815 39.36C98.815 39.84 98.785 40.34 98.725 40.86H87.115C87.195 41.9 87.525 42.7 88.105 43.26C88.705 43.8 89.435 44.07 90.295 44.07C91.575 44.07 92.465 43.53 92.965 42.45H98.425C98.145 43.55 97.635 44.54 96.895 45.42C96.175 46.3 95.265 46.99 94.165 47.49C93.065 47.99 91.835 48.24 90.475 48.24C88.835 48.24 87.375 47.89 86.095 47.19C84.815 46.49 83.815 45.49 83.095 44.19C82.375 42.89 82.015 41.37 82.015 39.63C82.015 37.89 82.365 36.37 83.065 35.07C83.785 33.77 84.785 32.77 86.065 32.07C87.345 31.37 88.815 31.02 90.475 31.02C92.095 31.02 93.535 31.36 94.795 32.04C96.055 32.72 97.035 33.69 97.735 34.95C98.455 36.21 98.815 37.68 98.815 39.36ZM93.565 38.01C93.565 37.13 93.265 36.43 92.665 35.91C92.065 35.39 91.315 35.13 90.415 35.13C89.555 35.13 88.825 35.38 88.225 35.88C87.645 36.38 87.285 37.09 87.145 38.01H93.565ZM104.071 29.52C103.171 29.52 102.431 29.26 101.851 28.74C101.291 28.2 101.011 27.54 101.011 26.76C101.011 25.96 101.291 25.3 101.851 24.78C102.431 24.24 103.171 23.97 104.071 23.97C104.951 23.97 105.671 24.24 106.231 24.78C106.811 25.3 107.101 25.96 107.101 26.76C107.101 27.54 106.811 28.2 106.231 28.74C105.671 29.26 104.951 29.52 104.071 29.52ZM106.651 50.16C106.651 52.22 106.131 53.7 105.091 54.6C104.051 55.52 102.601 55.98 100.741 55.98H98.7313V51.63H99.9613C100.521 51.63 100.921 51.52 101.161 51.3C101.401 51.08 101.521 50.72 101.521 50.22V31.26H106.651V50.16ZM126.87 31.26V48H121.74V45.72C121.22 46.46 120.51 47.06 119.61 47.52C118.73 47.96 117.75 48.18 116.67 48.18C115.39 48.18 114.26 47.9 113.28 47.34C112.3 46.76 111.54 45.93 111 44.85C110.46 43.77 110.19 42.5 110.19 41.04V31.26H115.29V40.35C115.29 41.47 115.58 42.34 116.16 42.96C116.74 43.58 117.52 43.89 118.5 43.89C119.5 43.89 120.29 43.58 120.87 42.96C121.45 42.34 121.74 41.47 121.74 40.35V31.26H126.87ZM138.085 43.2L141.715 31.26H147.175L141.235 48H134.905L128.965 31.26H134.455L138.085 43.2ZM165.114 39.36C165.114 39.84 165.084 40.34 165.024 40.86H153.414C153.494 41.9 153.824 42.7 154.404 43.26C155.004 43.8 155.734 44.07 156.594 44.07C157.874 44.07 158.764 43.53 159.264 42.45H164.724C164.444 43.55 163.934 44.54 163.194 45.42C162.474 46.3 161.564 46.99 160.464 47.49C159.364 47.99 158.134 48.24 156.774 48.24C155.134 48.24 153.674 47.89 152.394 47.19C151.114 46.49 150.114 45.49 149.394 44.19C148.674 42.89 148.314 41.37 148.314 39.63C148.314 37.89 148.664 36.37 149.364 35.07C150.084 33.77 151.084 32.77 152.364 32.07C153.644 31.37 155.114 31.02 156.774 31.02C158.394 31.02 159.834 31.36 161.094 32.04C162.354 32.72 163.334 33.69 164.034 34.95C164.754 36.21 165.114 37.68 165.114 39.36ZM159.864 38.01C159.864 37.13 159.564 36.43 158.964 35.91C158.364 35.39 157.614 35.13 156.714 35.13C155.854 35.13 155.124 35.38 154.524 35.88C153.944 36.38 153.584 37.09 153.444 38.01H159.864ZM178.02 31.08C179.98 31.08 181.54 31.72 182.7 33C183.88 34.26 184.47 36 184.47 38.22V48H179.37V38.91C179.37 37.79 179.08 36.92 178.5 36.3C177.92 35.68 177.14 35.37 176.16 35.37C175.18 35.37 174.4 35.68 173.82 36.3C173.24 36.92 172.95 37.79 172.95 38.91V48H167.82V31.26H172.95V33.48C173.47 32.74 174.17 32.16 175.05 31.74C175.93 31.3 176.92 31.08 178.02 31.08ZM187.015 39.6C187.015 37.88 187.335 36.37 187.975 35.07C188.635 33.77 189.525 32.77 190.645 32.07C191.765 31.37 193.015 31.02 194.395 31.02C195.575 31.02 196.605 31.26 197.485 31.74C198.385 32.22 199.075 32.85 199.555 33.63V31.26H204.685V48H199.555V45.63C199.055 46.41 198.355 47.04 197.455 47.52C196.575 48 195.545 48.24 194.365 48.24C193.005 48.24 191.765 47.89 190.645 47.19C189.525 46.47 188.635 45.46 187.975 44.16C187.335 42.84 187.015 41.32 187.015 39.6ZM199.555 39.63C199.555 38.35 199.195 37.34 198.475 36.6C197.775 35.86 196.915 35.49 195.895 35.49C194.875 35.49 194.005 35.86 193.285 36.6C192.585 37.32 192.235 38.32 192.235 39.6C192.235 40.88 192.585 41.9 193.285 42.66C194.005 43.4 194.875 43.77 195.895 43.77C196.915 43.77 197.775 43.4 198.475 42.66C199.195 41.92 199.555 40.91 199.555 39.63ZM217.726 43.65V48H215.116C213.256 48 211.806 47.55 210.766 46.65C209.726 45.73 209.206 44.24 209.206 42.18V35.52H207.166V31.26H209.206V27.18H214.336V31.26H217.696V35.52H214.336V42.24C214.336 42.74 214.456 43.1 214.696 43.32C214.936 43.54 215.336 43.65 215.896 43.65H217.726ZM236.364 39.36C236.364 39.84 236.334 40.34 236.274 40.86H224.664C224.744 41.9 225.074 42.7 225.654 43.26C226.254 43.8 226.984 44.07 227.844 44.07C229.124 44.07 230.014 43.53 230.514 42.45H235.974C235.694 43.55 235.184 44.54 234.444 45.42C233.724 46.3 232.814 46.99 231.714 47.49C230.614 47.99 229.384 48.24 228.024 48.24C226.384 48.24 224.924 47.89 223.644 47.19C222.364 46.49 221.364 45.49 220.644 44.19C219.924 42.89 219.564 41.37 219.564 39.63C219.564 37.89 219.914 36.37 220.614 35.07C221.334 33.77 222.334 32.77 223.614 32.07C224.894 31.37 226.364 31.02 228.024 31.02C229.644 31.02 231.084 31.36 232.344 32.04C233.604 32.72 234.584 33.69 235.284 34.95C236.004 36.21 236.364 37.68 236.364 39.36ZM231.114 38.01C231.114 37.13 230.814 36.43 230.214 35.91C229.614 35.39 228.864 35.13 227.964 35.13C227.104 35.13 226.374 35.38 225.774 35.88C225.194 36.38 224.834 37.09 224.694 38.01H231.114ZM258.538 44.28H250.678L249.418 48H244.048L251.668 26.94H257.608L265.228 48H259.798L258.538 44.28ZM257.218 40.32L254.608 32.61L252.028 40.32H257.218ZM272.677 26.94V48H267.547V26.94H272.677Z" fill="#014421"/>
<path d="M28.9881 14.2254C23.5043 14.1841 22.7865 20.0015 22.7865 20.0015C24.8154 19.882 24.8633 16.1876 27.4186 16.4185C25.3322 19.0159 26.3563 22.8621 26.3563 22.8621L27.5047 23.3383L29.1029 22.8352C29.1029 22.8352 31.3232 20.0761 30.7012 17.087C33.3904 19.4382 30.8447 21.5504 34.0986 24.3984C34.0986 24.3984 35.7256 21.2449 34.5772 18.3933C37.4195 20.8496 36.3477 25.0094 40.4246 25.8809C37.3334 22.6824 40.2811 15.7546 30.1557 14.3153C29.7441 14.2569 29.3613 14.2281 28.9881 14.2254ZM19.1785 19.9422C6.4012 19.9054 9.73645 27.3723 9.15936 33.6973C12.3434 31.3973 9.6819 25.7012 12.6468 23.5629C11.5031 25.4496 13.0018 30.0586 13.0018 30.0586C16.25 27.5789 11.9663 21.5953 20.4609 19.9691C20.0111 19.9521 19.59 19.9431 19.1785 19.9422ZM23.2746 24.3895C19.5805 24.3895 16.4701 26.366 16.5658 29.5914C10.7566 31.7297 13.2736 42.3313 13.2736 49.1504C17.1783 45.4938 13.4086 37.0484 16.4893 34.1555L17.6856 43.6879C20.7672 40.4805 17.5133 33.8231 20.4705 30.7504L21.2266 37.4887C23.5522 34.8832 21.0926 27.2555 26.4424 24.8656C25.3801 24.5422 24.2986 24.3805 23.2746 24.3895ZM30.4045 24.7758C26.7965 24.668 23.667 28.8098 26.6816 33.4906C26.6816 33.4906 26.7486 29.9957 28.5287 28.6391C30.194 30.5617 27.4281 35.5121 30.4715 39.007L31.907 30.4809C34.9408 33.6613 31.2467 39.7707 33.9647 42.6098L35.8979 35.602C38.568 39.7168 35.3141 46.2125 38.9221 49.6176C38.769 46.7785 44.1666 34.7305 36.4529 31.1817C35.2375 26.6535 32.7205 24.8387 30.4045 24.7758ZM40.7022 27.3723C38.5488 27.3633 36.8932 27.7317 36.8932 27.7317C43.8029 28.0461 43.5158 33.6074 43.5158 33.6074C49.4877 35.4672 47.6693 43.0859 48.8752 44.9996C50.9711 37.6414 46.8559 31.7746 46.8559 31.7746C46.8559 31.7746 49.2484 32.7809 50.2725 36.6621C50.7031 28.7738 44.8078 27.3902 40.7022 27.3723ZM24.6336 35C24.7772 36.3926 23.399 38.3332 23.399 38.3332C23.399 38.3332 23.8584 40.1481 27.9736 39.3395C27.9736 39.3395 26.9879 38.6567 26.7104 36.8059C25.3897 36.2848 24.6336 35 24.6336 35ZM21.4945 40.5973C21.4945 40.5973 21.1787 43.3645 21.8965 46.3203C22.6717 49.5098 23.667 46.0867 23.5522 43.3734C26.5668 44.3258 23.1406 47.2547 26.8252 49.8602L27.1984 44.757C30.3854 45.6465 26.9783 50.543 29.6293 51.5223C31.5912 49.5547 31.9357 46.0508 29.9356 44.0742C27.275 41.4418 24.2221 43.2926 21.4945 40.5973ZM32.376 44.3438C33.8115 47.3984 34.1752 53.0586 28.0981 55.5832H40.9223C40.9223 55.5832 43.1234 51.1359 41.7357 48.4047L39.9748 52.1332C34.9313 50.9293 35.4576 47.9106 32.376 44.3438Z" fill="#014421"/>
</svg>
