<svg width="55" height="44" viewBox="0 0 55 44" fill="none" xmlns="http://www.w3.org/2000/svg">
<path d="M49.8438 22H41.25V16.5C41.25 13.4664 44.333 11 48.125 11H48.9844C50.4131 11 51.5625 10.0805 51.5625 8.9375V4.8125C51.5625 3.66953 50.4131 2.75 48.9844 2.75H48.125C38.6289 2.75 30.9375 8.90312 30.9375 16.5V37.125C30.9375 39.4023 33.2471 41.25 36.0938 41.25H49.8438C52.6904 41.25 55 39.4023 55 37.125V26.125C55 23.8477 52.6904 22 49.8438 22ZM18.9062 22H10.3125V16.5C10.3125 13.4664 13.3955 11 17.1875 11H18.0469C19.4756 11 20.625 10.0805 20.625 8.9375V4.8125C20.625 3.66953 19.4756 2.75 18.0469 2.75H17.1875C7.69141 2.75 0 8.90312 0 16.5V37.125C0 39.4023 2.30957 41.25 5.15625 41.25H18.9062C21.7529 41.25 24.0625 39.4023 24.0625 37.125V26.125C24.0625 23.8477 21.7529 22 18.9062 22Z" fill="#F5F5DC"/>
</svg>
