<svg width="291" height="73" viewBox="0 0 291 73" fill="none" xmlns="http://www.w3.org/2000/svg">
<path d="M74.2047 48L69.8247 40.05H68.5947V48H63.4647V26.94H72.0747C73.7347 26.94 75.1447 27.23 76.3047 27.81C77.4847 28.39 78.3647 29.19 78.9447 30.21C79.5247 31.21 79.8147 32.33 79.8147 33.57C79.8147 34.97 79.4147 36.22 78.6147 37.32C77.8347 38.42 76.6747 39.2 75.1347 39.66L79.9947 48H74.2047ZM68.5947 36.42H71.7747C72.7147 36.42 73.4147 36.19 73.8747 35.73C74.3547 35.27 74.5947 34.62 74.5947 33.78C74.5947 32.98 74.3547 32.35 73.8747 31.89C73.4147 31.43 72.7147 31.2 71.7747 31.2H68.5947V36.42ZM98.815 39.36C98.815 39.84 98.785 40.34 98.725 40.86H87.115C87.195 41.9 87.525 42.7 88.105 43.26C88.705 43.8 89.435 44.07 90.295 44.07C91.575 44.07 92.465 43.53 92.965 42.45H98.425C98.145 43.55 97.635 44.54 96.895 45.42C96.175 46.3 95.265 46.99 94.165 47.49C93.065 47.99 91.835 48.24 90.475 48.24C88.835 48.24 87.375 47.89 86.095 47.19C84.815 46.49 83.815 45.49 83.095 44.19C82.375 42.89 82.015 41.37 82.015 39.63C82.015 37.89 82.365 36.37 83.065 35.07C83.785 33.77 84.785 32.77 86.065 32.07C87.345 31.37 88.815 31.02 90.475 31.02C92.095 31.02 93.535 31.36 94.795 32.04C96.055 32.72 97.035 33.69 97.735 34.95C98.455 36.21 98.815 37.68 98.815 39.36ZM93.565 38.01C93.565 37.13 93.265 36.43 92.665 35.91C92.065 35.39 91.315 35.13 90.415 35.13C89.555 35.13 88.825 35.38 88.225 35.88C87.645 36.38 87.285 37.09 87.145 38.01H93.565ZM104.071 29.52C103.171 29.52 102.431 29.26 101.851 28.74C101.291 28.2 101.011 27.54 101.011 26.76C101.011 25.96 101.291 25.3 101.851 24.78C102.431 24.24 103.171 23.97 104.071 23.97C104.951 23.97 105.671 24.24 106.231 24.78C106.811 25.3 107.101 25.96 107.101 26.76C107.101 27.54 106.811 28.2 106.231 28.74C105.671 29.26 104.951 29.52 104.071 29.52ZM106.651 50.16C106.651 52.22 106.131 53.7 105.091 54.6C104.051 55.52 102.601 55.98 100.741 55.98H98.7313V51.63H99.9613C100.521 51.63 100.921 51.52 101.161 51.3C101.401 51.08 101.521 50.72 101.521 50.22V31.26H106.651V50.16ZM126.87 31.26V48H121.74V45.72C121.22 46.46 120.51 47.06 119.61 47.52C118.73 47.96 117.75 48.18 116.67 48.18C115.39 48.18 114.26 47.9 113.28 47.34C112.3 46.76 111.54 45.93 111 44.85C110.46 43.77 110.19 42.5 110.19 41.04V31.26H115.29V40.35C115.29 41.47 115.58 42.34 116.16 42.96C116.74 43.58 117.52 43.89 118.5 43.89C119.5 43.89 120.29 43.58 120.87 42.96C121.45 42.34 121.74 41.47 121.74 40.35V31.26H126.87ZM138.085 43.2L141.715 31.26H147.175L141.235 48H134.905L128.965 31.26H134.455L138.085 43.2ZM165.114 39.36C165.114 39.84 165.084 40.34 165.024 40.86H153.414C153.494 41.9 153.824 42.7 154.404 43.26C155.004 43.8 155.734 44.07 156.594 44.07C157.874 44.07 158.764 43.53 159.264 42.45H164.724C164.444 43.55 163.934 44.54 163.194 45.42C162.474 46.3 161.564 46.99 160.464 47.49C159.364 47.99 158.134 48.24 156.774 48.24C155.134 48.24 153.674 47.89 152.394 47.19C151.114 46.49 150.114 45.49 149.394 44.19C148.674 42.89 148.314 41.37 148.314 39.63C148.314 37.89 148.664 36.37 149.364 35.07C150.084 33.77 151.084 32.77 152.364 32.07C153.644 31.37 155.114 31.02 156.774 31.02C158.394 31.02 159.834 31.36 161.094 32.04C162.354 32.72 163.334 33.69 164.034 34.95C164.754 36.21 165.114 37.68 165.114 39.36ZM159.864 38.01C159.864 37.13 159.564 36.43 158.964 35.91C158.364 35.39 157.614 35.13 156.714 35.13C155.854 35.13 155.124 35.38 154.524 35.88C153.944 36.38 153.584 37.09 153.444 38.01H159.864ZM178.02 31.08C179.98 31.08 181.54 31.72 182.7 33C183.88 34.26 184.47 36 184.47 38.22V48H179.37V38.91C179.37 37.79 179.08 36.92 178.5 36.3C177.92 35.68 177.14 35.37 176.16 35.37C175.18 35.37 174.4 35.68 173.82 36.3C173.24 36.92 172.95 37.79 172.95 38.91V48H167.82V31.26H172.95V33.48C173.47 32.74 174.17 32.16 175.05 31.74C175.93 31.3 176.92 31.08 178.02 31.08ZM187.015 39.6C187.015 37.88 187.335 36.37 187.975 35.07C188.635 33.77 189.525 32.77 190.645 32.07C191.765 31.37 193.015 31.02 194.395 31.02C195.575 31.02 196.605 31.26 197.485 31.74C198.385 32.22 199.075 32.85 199.555 33.63V31.26H204.685V48H199.555V45.63C199.055 46.41 198.355 47.04 197.455 47.52C196.575 48 195.545 48.24 194.365 48.24C193.005 48.24 191.765 47.89 190.645 47.19C189.525 46.47 188.635 45.46 187.975 44.16C187.335 42.84 187.015 41.32 187.015 39.6ZM199.555 39.63C199.555 38.35 199.195 37.34 198.475 36.6C197.775 35.86 196.915 35.49 195.895 35.49C194.875 35.49 194.005 35.86 193.285 36.6C192.585 37.32 192.235 38.32 192.235 39.6C192.235 40.88 192.585 41.9 193.285 42.66C194.005 43.4 194.875 43.77 195.895 43.77C196.915 43.77 197.775 43.4 198.475 42.66C199.195 41.92 199.555 40.91 199.555 39.63ZM217.726 43.65V48H215.116C213.256 48 211.806 47.55 210.766 46.65C209.726 45.73 209.206 44.24 209.206 42.18V35.52H207.166V31.26H209.206V27.18H214.336V31.26H217.696V35.52H214.336V42.24C214.336 42.74 214.456 43.1 214.696 43.32C214.936 43.54 215.336 43.65 215.896 43.65H217.726ZM236.364 39.36C236.364 39.84 236.334 40.34 236.274 40.86H224.664C224.744 41.9 225.074 42.7 225.654 43.26C226.254 43.8 226.984 44.07 227.844 44.07C229.124 44.07 230.014 43.53 230.514 42.45H235.974C235.694 43.55 235.184 44.54 234.444 45.42C233.724 46.3 232.814 46.99 231.714 47.49C230.614 47.99 229.384 48.24 228.024 48.24C226.384 48.24 224.924 47.89 223.644 47.19C222.364 46.49 221.364 45.49 220.644 44.19C219.924 42.89 219.564 41.37 219.564 39.63C219.564 37.89 219.914 36.37 220.614 35.07C221.334 33.77 222.334 32.77 223.614 32.07C224.894 31.37 226.364 31.02 228.024 31.02C229.644 31.02 231.084 31.36 232.344 32.04C233.604 32.72 234.584 33.69 235.284 34.95C236.004 36.21 236.364 37.68 236.364 39.36ZM231.114 38.01C231.114 37.13 230.814 36.43 230.214 35.91C229.614 35.39 228.864 35.13 227.964 35.13C227.104 35.13 226.374 35.38 225.774 35.88C225.194 36.38 224.834 37.09 224.694 38.01H231.114ZM258.538 44.28H250.678L249.418 48H244.048L251.668 26.94H257.608L265.228 48H259.798L258.538 44.28ZM257.218 40.32L254.608 32.61L252.028 40.32H257.218ZM272.677 26.94V48H267.547V26.94H272.677Z" fill="#F5F5DC"/>
<path d="M28.9879 14.2253C23.5041 14.184 22.7863 20.0014 22.7863 20.0014C24.8153 19.8819 24.8631 16.1875 27.4184 16.4184C25.3321 19.0158 26.3561 22.862 26.3561 22.862L27.5045 23.3382L29.1028 22.835C29.1028 22.835 31.3231 20.0759 30.701 17.0868C33.3903 19.4381 30.8446 21.5503 34.0985 24.3983C34.0985 24.3983 35.7254 21.2448 34.577 18.3932C37.4194 20.8495 36.3475 25.0093 40.4244 25.8807C37.3332 22.6823 40.2809 15.7545 30.1555 14.3152C29.744 14.2568 29.3612 14.228 28.9879 14.2253ZM19.1783 19.9421C6.40102 19.9052 9.73627 27.3722 9.15918 33.6972C12.3432 31.3972 9.68172 25.7011 12.6466 23.5628C11.5029 25.4495 13.0017 30.0585 13.0017 30.0585C16.2498 27.5788 11.9662 21.5952 20.4608 19.969C20.011 19.952 19.5899 19.943 19.1783 19.9421ZM23.2744 24.3893C19.5803 24.3893 16.4699 26.3659 16.5656 29.5913C10.7565 31.7296 13.2735 42.3311 13.2735 49.1503C17.1781 45.4936 13.4084 37.0483 16.4891 34.1554L17.6854 43.6878C20.767 40.4804 17.5131 33.8229 20.4703 30.7503L21.2264 37.4886C23.552 34.8831 21.0924 27.2554 26.4422 24.8655C25.3799 24.5421 24.2985 24.3804 23.2744 24.3893ZM30.4043 24.7757C26.7963 24.6679 23.6668 28.8097 26.6815 33.4905C26.6815 33.4905 26.7485 29.9956 28.5285 28.6389C30.1938 30.5616 27.4279 35.512 30.4713 39.0069L31.9069 30.4807C34.9406 33.6612 31.2465 39.7706 33.9645 42.6097L35.8977 35.6018C38.5678 39.7167 35.3139 46.2124 38.9219 49.6175C38.7688 46.7784 44.1664 34.7304 36.4528 31.1815C35.2373 26.6534 32.7203 24.8386 30.4043 24.7757ZM40.702 27.3722C38.5487 27.3632 36.893 27.7315 36.893 27.7315C43.8028 28.046 43.5156 33.6073 43.5156 33.6073C49.4875 35.4671 47.6692 43.0858 48.875 44.9995C50.9709 37.6413 46.8557 31.7745 46.8557 31.7745C46.8557 31.7745 49.2483 32.7807 50.2723 36.662C50.7029 28.7737 44.8076 27.3901 40.702 27.3722ZM24.6334 34.9999C24.777 36.3925 23.3988 38.3331 23.3988 38.3331C23.3988 38.3331 23.8582 40.1479 27.9735 39.3393C27.9735 39.3393 26.9877 38.6565 26.7102 36.8057C25.3895 36.2847 24.6334 34.9999 24.6334 34.9999ZM21.4944 40.5972C21.4944 40.5972 21.1785 43.3643 21.8963 46.3202C22.6715 49.5097 23.6668 46.0866 23.552 43.3733C26.5666 44.3257 23.1404 47.2546 26.825 49.86L27.1983 44.7569C30.3852 45.6464 26.9781 50.5429 29.6291 51.5222C31.591 49.5546 31.9356 46.0507 29.9354 44.0741C27.2748 41.4417 24.2219 43.2925 21.4944 40.5972ZM32.3758 44.3436C33.8113 47.3983 34.175 53.0585 28.0979 55.5831H40.9221C40.9221 55.5831 43.1233 51.1358 41.7356 48.4046L39.9746 52.1331C34.9311 50.9292 35.4574 47.9104 32.3758 44.3436Z" fill="#F5F5DC"/>
</svg>
